# xmcd CD database file
# Copyright (C) 1995 Ti Kan
#
# Track frame offsets:
#	183
#	12628
#	21963
#	33168
#	44015
#	52195
#	64278
#	75730
#	85705
#	91720
#	101825
#	110633
#	120198
#	131485
#	143360
#
# Disc length: 2031 seconds
#
# Revision: 2
# Processed by: cddbd v1.4PL0 Copyright (c) Steve Scherf et al.
# Submitted via: NotifyCDPlayer(CDDB) 1.60beta5_freedb
#
DISCID=c207ed0f
DTITLE=Johnny Cash - I Walk The Line - CD 1
DYEAR=1900
DGENRE=
TTITLE0=I Walk The Line
TTITLE1=Luther Played The Boogie
TTITLE2=Mean Eyed Cat
TTITLE3=Belshazar
TTITLE4=The Wreck Of The Old '97
TTITLE5=You're The Nearest Thing To Heaven
TTITLE6=Big River
TTITLE7=Ballad Of Teenage Queen
TTITLE8=You Tell Me
TTITLE9=Straight A's In Love
TTITLE10=Two Timin' Woman
TTITLE11=It's Just About Time
TTITLE12=Oh Lonesome Me
TTITLE13=Doin' My Time
TTITLE14=Blue Train
EXTD=Sun Recordings
EXTT0=
EXTT1=
EXTT2=
EXTT3=
EXTT4=
EXTT5=
EXTT6=
EXTT7=
EXTT8=
EXTT9=
EXTT10=
EXTT11=
EXTT12=
EXTT13=
EXTT14=
PLAYORDER=
